<svg id="icon" height="512" viewBox="0 0 128 128" width="512" xmlns="http://www.w3.org/2000/svg"><path d="m90.988 49.988c0 28.543-26.988 55.012-26.988 55.012s-26.988-26.469-26.988-55.012a26.988 26.988 0 0 1 53.977 0z" fill="#69b0ee"/><circle cx="64" cy="49.988" fill="#eeefee" r="18.264"/><path d="m64.015 44.481c-.007 0-.007-.015-.015-.022l.007-.007c0 .007.008.022.008.029z" fill="#da364c"/><path d="m76.238 46.985c0 4.017-2.735 8.72-6.849 12.551a30.2 30.2 0 0 1 -5.389 3.987c-.6-.35-1.185-.73-1.759-1.118-5.851-4.047-10.479-10.293-10.479-15.42a6.382 6.382 0 0 1 4.613-6.134 6.567 6.567 0 0 1 1.766-.246 6.292 6.292 0 0 1 3.831 1.289c.082.06.164.127.246.194a6.317 6.317 0 0 1 1.573 1.938c.075.142.142.283.209.432.007.007.007.022.015.022s-.007-.022-.007-.03v-.007a1.054 1.054 0 0 1 .06-.134 5.782 5.782 0 0 1 .574-1 6.381 6.381 0 0 1 11.6 3.674z" fill="#da364c"/><g fill="#ef5261"><path d="m64.067 44.31a1.054 1.054 0 0 0 -.06.134h-.007z"/><path d="m72.7 46.985c0 4.017-2.735 8.72-6.849 12.551a30.331 30.331 0 0 1 -3.607 2.869c-5.851-4.047-10.479-10.293-10.479-15.42a6.382 6.382 0 0 1 4.613-6.134 6.567 6.567 0 0 1 1.766-.246 6.292 6.292 0 0 1 3.831 1.289c.089.171.171.253.246.194a6.317 6.317 0 0 1 1.573 1.938c.075.142.142.283.209.432l.007-.007v-.007h-.01l.067-.134a5.782 5.782 0 0 1 .574-1 6.315 6.315 0 0 1 3.443-2.452 6.363 6.363 0 0 1 4.616 6.127z"/></g></svg>