<svg id="icon" height="512" viewBox="0 0 128 128" width="512" xmlns="http://www.w3.org/2000/svg"><path d="m21.124 52.64a23.223 23.223 0 0 1 23.727-25.507 23.146 23.146 0 0 1 11.717 3.512 23.251 23.251 0 0 1 43.3 14.972h.214a27.609 27.609 0 1 1 -20.234 47.09 23.258 23.258 0 0 1 -39.29-.435 23.256 23.256 0 1 1 -19.434-39.632z" fill="#f0f5f9"/><path d="m23.676 98.938a23.215 23.215 0 0 0 16.885-6.662 23.254 23.254 0 0 0 39.283.435 27.619 27.619 0 0 0 46.839-23.695 27.6 27.6 0 0 1 -46.839 15.343 23.253 23.253 0 0 1 -39.283-.435 23.257 23.257 0 0 1 -39.178-12.4 22.029 22.029 0 0 0 -.371 3.576 23.248 23.248 0 0 0 22.664 23.838z" fill="#d9e2e9"/><path d="m89.974 51.859a1 1 0 0 1 -.66-1.752 24.783 24.783 0 0 1 10.577-5.472 1 1 0 0 1 .382 1.963 23.2 23.2 0 0 0 -9.641 5.013 1 1 0 0 1 -.658.248z" fill="#2f3a5a"/><path d="m33.574 30.115s-14.712 9.955-3.022 23.953a3.362 3.362 0 0 0 -.356.35c-3.383-2.2-3.657-1.234-8.524-1.781 0 0-3.323-16.281 11.902-22.522z" fill="#d9e2e9"/><path d="m60.355 104.3c-.208 0-.416 0-.625-.008a24.191 24.191 0 0 1 -19.358-10.477 24.257 24.257 0 1 1 -20.318-42.022c-.041-.687-.054-1.362-.037-2.016a24.256 24.256 0 0 1 36.2-20.506 24.259 24.259 0 0 1 44.947 13.262c-.018.694-.068 1.4-.151 2.121a28.608 28.608 0 1 1 -21.013 49.592 24.092 24.092 0 0 1 -19.645 10.054zm-19.606-13.618.658 1.063a22.257 22.257 0 0 0 37.6.416l.674-1.036.873.875a26.605 26.605 0 1 0 19.5-45.384h-.209l-1.145-.023.181-1.134a22.707 22.707 0 0 0 .28-2.976 22.259 22.259 0 0 0 -41.719-11.352l-.511.92-.893-.557a22.235 22.235 0 0 0 -33.919 21.05l.092.958-.954.129a22.258 22.258 0 1 0 18.6 37.928z" fill="#2f3a5a"/><path d="m29.81 55.068a1.007 1.007 0 0 1 -.327-.055 26.165 26.165 0 0 0 -8.327-1.374.972.972 0 0 1 -1.032-.967 1 1 0 0 1 .967-1.032 27.866 27.866 0 0 1 9.045 1.483 1 1 0 0 1 -.326 1.945z" fill="#2f3a5a"/><path d="m43.835 82.423h3.979v6.963h-3.979z" fill="#b0b3c1" transform="matrix(.707 .707 -.707 .707 74.165 -7.242)"/><path d="m44.77 91.187-4.228-4.228 6.338-6.337 4.227 4.227zm-1.4-4.228 1.4 1.4 3.509-3.51-1.4-1.4z" fill="#2f3a5a"/><path d="m76.425 55.3a20.255 20.255 0 1 0 -.007 28.645 20.255 20.255 0 0 0 .007-28.645zm-25.568 25.572a15.9 15.9 0 1 1 22.485 0 15.9 15.9 0 0 1 -22.485 0z" fill="#b0b3c1"/><path d="m62.1 90.87a21.247 21.247 0 1 1 15.026-6.214 21.188 21.188 0 0 1 -15.026 6.214zm.009-40.486a19.239 19.239 0 1 0 13.61 5.627 19.2 19.2 0 0 0 -13.611-5.627zm-.009 36.137a16.892 16.892 0 1 1 11.949-4.942 16.844 16.844 0 0 1 -11.949 4.942zm0-31.784a14.893 14.893 0 1 0 10.536 4.357 14.856 14.856 0 0 0 -10.536-4.357z" fill="#2f3a5a"/><rect fill="#b0b3c1" height="11.068" rx="1.537" transform="matrix(.707 -.707 .707 .707 -58.17 53.07)" width="26.316" x="21.818" y="91.218"/><path d="m47.106 92.445-16.434 16.433a1.531 1.531 0 0 1 -2.17.007l-1.888-1.885a1.532 1.532 0 0 0 1.357-.424l16.429-16.436a1.541 1.541 0 0 0 0-2.178l-3.768-3.769a1.489 1.489 0 0 1 .82.424l5.657 5.657a1.532 1.532 0 0 1 -.003 2.171z" fill="#9297ab"/><path d="m29.585 110.332a2.53 2.53 0 0 1 -1.793-.741l-5.653-5.653a2.539 2.539 0 0 1 0-3.588l16.435-16.435a2.6 2.6 0 0 1 3.588 0l5.652 5.653a2.536 2.536 0 0 1 0 3.587l-16.435 16.435a2.526 2.526 0 0 1 -1.794.742zm10.783-25.16a.534.534 0 0 0 -.38.157l-16.435 16.435a.537.537 0 0 0 0 .759l5.653 5.653a.538.538 0 0 0 .759 0l16.435-16.435a.537.537 0 0 0 0-.759l-5.653-5.653a.533.533 0 0 0 -.379-.157z" fill="#2f3a5a"/></svg>